<mxfile host="app.diagrams.net" modified="2023-03-08T09:46:40.070Z" agent="5.0 (Windows NT 10.0; Win64; x64) AppleWebKit/537.36 (KHTML, like Gecko) Chrome/99.0.4844.82 Safari/537.36" version="20.8.4" etag="IPEeF26Mvxkmc1RFK-Zp" type="github">
  <diagram id="EEkw0eGctwKbNWzT5EkV" name="第 1 页">
    <mxGraphModel dx="2013" dy="599" grid="1" gridSize="10" guides="1" tooltips="1" connect="1" arrows="1" fold="1" page="1" pageScale="1" pageWidth="827" pageHeight="1169" math="0" shadow="0">
      <root>
        <mxCell id="0" />
        <mxCell id="1" parent="0" />
        <mxCell id="4VtLp9OZr_BloXx7tkcs-1" value="" style="shape=cylinder3;whiteSpace=wrap;html=1;boundedLbl=1;backgroundOutline=1;size=15;rotation=90;" vertex="1" parent="1">
          <mxGeometry x="160" y="335" width="60" height="130" as="geometry" />
        </mxCell>
        <mxCell id="4VtLp9OZr_BloXx7tkcs-3" style="edgeStyle=orthogonalEdgeStyle;rounded=0;orthogonalLoop=1;jettySize=auto;html=1;" edge="1" parent="1" source="4VtLp9OZr_BloXx7tkcs-2" target="4VtLp9OZr_BloXx7tkcs-1">
          <mxGeometry relative="1" as="geometry" />
        </mxCell>
        <mxCell id="4VtLp9OZr_BloXx7tkcs-2" value="" style="shape=note;whiteSpace=wrap;html=1;backgroundOutline=1;darkOpacity=0.05;size=19;" vertex="1" parent="1">
          <mxGeometry x="10" y="330" width="50" height="60" as="geometry" />
        </mxCell>
        <mxCell id="4VtLp9OZr_BloXx7tkcs-22" style="edgeStyle=orthogonalEdgeStyle;rounded=0;orthogonalLoop=1;jettySize=auto;html=1;entryX=0;entryY=0.75;entryDx=0;entryDy=0;" edge="1" parent="1" source="4VtLp9OZr_BloXx7tkcs-4" target="4VtLp9OZr_BloXx7tkcs-18">
          <mxGeometry relative="1" as="geometry">
            <mxPoint x="560" y="320" as="targetPoint" />
          </mxGeometry>
        </mxCell>
        <mxCell id="4VtLp9OZr_BloXx7tkcs-4" value="avro sinkA" style="rounded=0;whiteSpace=wrap;html=1;" vertex="1" parent="1">
          <mxGeometry x="340" y="290" width="120" height="60" as="geometry" />
        </mxCell>
        <mxCell id="4VtLp9OZr_BloXx7tkcs-6" value="avro sink" style="rounded=0;whiteSpace=wrap;html=1;" vertex="1" parent="1">
          <mxGeometry x="10" y="140" width="120" height="60" as="geometry" />
        </mxCell>
        <mxCell id="4VtLp9OZr_BloXx7tkcs-23" style="edgeStyle=orthogonalEdgeStyle;rounded=0;orthogonalLoop=1;jettySize=auto;html=1;entryX=0;entryY=0.5;entryDx=0;entryDy=0;" edge="1" parent="1" source="4VtLp9OZr_BloXx7tkcs-7" target="4VtLp9OZr_BloXx7tkcs-19">
          <mxGeometry relative="1" as="geometry">
            <mxPoint x="560" y="380" as="targetPoint" />
          </mxGeometry>
        </mxCell>
        <mxCell id="4VtLp9OZr_BloXx7tkcs-7" value="avro sink" style="rounded=0;whiteSpace=wrap;html=1;" vertex="1" parent="1">
          <mxGeometry x="340" y="350" width="120" height="60" as="geometry" />
        </mxCell>
        <mxCell id="4VtLp9OZr_BloXx7tkcs-24" style="edgeStyle=orthogonalEdgeStyle;rounded=0;orthogonalLoop=1;jettySize=auto;html=1;entryX=0;entryY=0.5;entryDx=0;entryDy=0;" edge="1" parent="1" source="4VtLp9OZr_BloXx7tkcs-8" target="4VtLp9OZr_BloXx7tkcs-20">
          <mxGeometry relative="1" as="geometry">
            <mxPoint x="560" y="440" as="targetPoint" />
          </mxGeometry>
        </mxCell>
        <mxCell id="4VtLp9OZr_BloXx7tkcs-8" value="avro sink" style="rounded=0;whiteSpace=wrap;html=1;" vertex="1" parent="1">
          <mxGeometry x="340" y="410" width="120" height="60" as="geometry" />
        </mxCell>
        <mxCell id="4VtLp9OZr_BloXx7tkcs-25" style="edgeStyle=orthogonalEdgeStyle;rounded=0;orthogonalLoop=1;jettySize=auto;html=1;entryX=0;entryY=0.5;entryDx=0;entryDy=0;" edge="1" parent="1" source="4VtLp9OZr_BloXx7tkcs-9" target="4VtLp9OZr_BloXx7tkcs-21">
          <mxGeometry relative="1" as="geometry">
            <mxPoint x="560" y="500" as="targetPoint" />
          </mxGeometry>
        </mxCell>
        <mxCell id="4VtLp9OZr_BloXx7tkcs-9" value="avro sink" style="rounded=0;whiteSpace=wrap;html=1;" vertex="1" parent="1">
          <mxGeometry x="340" y="470" width="120" height="60" as="geometry" />
        </mxCell>
        <mxCell id="4VtLp9OZr_BloXx7tkcs-14" value="" style="endArrow=classic;html=1;rounded=0;" edge="1" parent="1">
          <mxGeometry width="50" height="50" relative="1" as="geometry">
            <mxPoint x="260" y="380" as="sourcePoint" />
            <mxPoint x="330" y="320" as="targetPoint" />
          </mxGeometry>
        </mxCell>
        <mxCell id="4VtLp9OZr_BloXx7tkcs-15" value="" style="endArrow=classic;html=1;rounded=0;" edge="1" parent="1">
          <mxGeometry width="50" height="50" relative="1" as="geometry">
            <mxPoint x="260" y="400" as="sourcePoint" />
            <mxPoint x="330" y="390" as="targetPoint" />
          </mxGeometry>
        </mxCell>
        <mxCell id="4VtLp9OZr_BloXx7tkcs-16" value="" style="endArrow=classic;html=1;rounded=0;" edge="1" parent="1">
          <mxGeometry width="50" height="50" relative="1" as="geometry">
            <mxPoint x="260" y="410" as="sourcePoint" />
            <mxPoint x="330" y="430" as="targetPoint" />
          </mxGeometry>
        </mxCell>
        <mxCell id="4VtLp9OZr_BloXx7tkcs-17" value="" style="endArrow=classic;html=1;rounded=0;" edge="1" parent="1">
          <mxGeometry width="50" height="50" relative="1" as="geometry">
            <mxPoint x="260" y="420" as="sourcePoint" />
            <mxPoint x="320" y="500" as="targetPoint" />
          </mxGeometry>
        </mxCell>
        <mxCell id="4VtLp9OZr_BloXx7tkcs-30" style="edgeStyle=orthogonalEdgeStyle;rounded=0;orthogonalLoop=1;jettySize=auto;html=1;" edge="1" parent="1" source="4VtLp9OZr_BloXx7tkcs-18">
          <mxGeometry relative="1" as="geometry">
            <mxPoint x="760" y="320" as="targetPoint" />
          </mxGeometry>
        </mxCell>
        <mxCell id="4VtLp9OZr_BloXx7tkcs-18" value="avro sourceA" style="rounded=0;whiteSpace=wrap;html=1;" vertex="1" parent="1">
          <mxGeometry x="570" y="250" width="120" height="60" as="geometry" />
        </mxCell>
        <mxCell id="4VtLp9OZr_BloXx7tkcs-31" style="edgeStyle=orthogonalEdgeStyle;rounded=0;orthogonalLoop=1;jettySize=auto;html=1;" edge="1" parent="1" source="4VtLp9OZr_BloXx7tkcs-19">
          <mxGeometry relative="1" as="geometry">
            <mxPoint x="760" y="380" as="targetPoint" />
          </mxGeometry>
        </mxCell>
        <mxCell id="4VtLp9OZr_BloXx7tkcs-19" value="avro source" style="rounded=0;whiteSpace=wrap;html=1;" vertex="1" parent="1">
          <mxGeometry x="570" y="335" width="120" height="60" as="geometry" />
        </mxCell>
        <mxCell id="4VtLp9OZr_BloXx7tkcs-32" style="edgeStyle=orthogonalEdgeStyle;rounded=0;orthogonalLoop=1;jettySize=auto;html=1;" edge="1" parent="1" source="4VtLp9OZr_BloXx7tkcs-20">
          <mxGeometry relative="1" as="geometry">
            <mxPoint x="760" y="440" as="targetPoint" />
          </mxGeometry>
        </mxCell>
        <mxCell id="4VtLp9OZr_BloXx7tkcs-20" value="avro source" style="rounded=0;whiteSpace=wrap;html=1;" vertex="1" parent="1">
          <mxGeometry x="570" y="410" width="120" height="60" as="geometry" />
        </mxCell>
        <mxCell id="4VtLp9OZr_BloXx7tkcs-33" style="edgeStyle=orthogonalEdgeStyle;rounded=0;orthogonalLoop=1;jettySize=auto;html=1;" edge="1" parent="1" source="4VtLp9OZr_BloXx7tkcs-21">
          <mxGeometry relative="1" as="geometry">
            <mxPoint x="760" y="500" as="targetPoint" />
          </mxGeometry>
        </mxCell>
        <mxCell id="4VtLp9OZr_BloXx7tkcs-21" value="avro source" style="rounded=0;whiteSpace=wrap;html=1;" vertex="1" parent="1">
          <mxGeometry x="570" y="490" width="120" height="60" as="geometry" />
        </mxCell>
        <mxCell id="4VtLp9OZr_BloXx7tkcs-36" style="edgeStyle=orthogonalEdgeStyle;rounded=0;orthogonalLoop=1;jettySize=auto;html=1;entryX=0;entryY=0.75;entryDx=0;entryDy=0;" edge="1" parent="1" source="4VtLp9OZr_BloXx7tkcs-26" target="4VtLp9OZr_BloXx7tkcs-35">
          <mxGeometry relative="1" as="geometry">
            <mxPoint x="870" y="320" as="targetPoint" />
          </mxGeometry>
        </mxCell>
        <mxCell id="4VtLp9OZr_BloXx7tkcs-40" style="edgeStyle=orthogonalEdgeStyle;rounded=0;orthogonalLoop=1;jettySize=auto;html=1;entryX=0;entryY=0.5;entryDx=0;entryDy=0;" edge="1" parent="1" source="4VtLp9OZr_BloXx7tkcs-26" target="4VtLp9OZr_BloXx7tkcs-39">
          <mxGeometry relative="1" as="geometry" />
        </mxCell>
        <mxCell id="4VtLp9OZr_BloXx7tkcs-26" value="" style="shape=cylinder3;whiteSpace=wrap;html=1;boundedLbl=1;backgroundOutline=1;size=15;rotation=90;" vertex="1" parent="1">
          <mxGeometry x="780" y="280" width="43" height="80" as="geometry" />
        </mxCell>
        <mxCell id="4VtLp9OZr_BloXx7tkcs-27" value="" style="shape=cylinder3;whiteSpace=wrap;html=1;boundedLbl=1;backgroundOutline=1;size=15;rotation=90;" vertex="1" parent="1">
          <mxGeometry x="780" y="340" width="43" height="80" as="geometry" />
        </mxCell>
        <mxCell id="4VtLp9OZr_BloXx7tkcs-28" value="" style="shape=cylinder3;whiteSpace=wrap;html=1;boundedLbl=1;backgroundOutline=1;size=15;rotation=90;" vertex="1" parent="1">
          <mxGeometry x="780" y="400" width="43" height="80" as="geometry" />
        </mxCell>
        <mxCell id="4VtLp9OZr_BloXx7tkcs-29" value="" style="shape=cylinder3;whiteSpace=wrap;html=1;boundedLbl=1;backgroundOutline=1;size=15;rotation=90;" vertex="1" parent="1">
          <mxGeometry x="780" y="460" width="43" height="80" as="geometry" />
        </mxCell>
        <mxCell id="4VtLp9OZr_BloXx7tkcs-44" style="edgeStyle=orthogonalEdgeStyle;rounded=0;orthogonalLoop=1;jettySize=auto;html=1;entryX=0.006;entryY=0.206;entryDx=0;entryDy=0;entryPerimeter=0;" edge="1" parent="1" source="4VtLp9OZr_BloXx7tkcs-35" target="4VtLp9OZr_BloXx7tkcs-37">
          <mxGeometry relative="1" as="geometry" />
        </mxCell>
        <mxCell id="4VtLp9OZr_BloXx7tkcs-35" value="kafka sinkA" style="rounded=0;whiteSpace=wrap;html=1;" vertex="1" parent="1">
          <mxGeometry x="880" y="260" width="100" height="40" as="geometry" />
        </mxCell>
        <mxCell id="4VtLp9OZr_BloXx7tkcs-37" value="kafka topic" style="rounded=0;whiteSpace=wrap;html=1;" vertex="1" parent="1">
          <mxGeometry x="1130" y="240" width="120" height="370" as="geometry" />
        </mxCell>
        <mxCell id="4VtLp9OZr_BloXx7tkcs-38" value="part 1" style="rounded=0;whiteSpace=wrap;html=1;" vertex="1" parent="1">
          <mxGeometry x="1145" y="300" width="90" height="40" as="geometry" />
        </mxCell>
        <mxCell id="4VtLp9OZr_BloXx7tkcs-45" style="edgeStyle=orthogonalEdgeStyle;rounded=0;orthogonalLoop=1;jettySize=auto;html=1;entryX=0.003;entryY=0.384;entryDx=0;entryDy=0;entryPerimeter=0;" edge="1" parent="1" source="4VtLp9OZr_BloXx7tkcs-39" target="4VtLp9OZr_BloXx7tkcs-37">
          <mxGeometry relative="1" as="geometry" />
        </mxCell>
        <mxCell id="4VtLp9OZr_BloXx7tkcs-39" value="kafka sinkB" style="rounded=0;whiteSpace=wrap;html=1;" vertex="1" parent="1">
          <mxGeometry x="880" y="330" width="100" height="40" as="geometry" />
        </mxCell>
        <mxCell id="4VtLp9OZr_BloXx7tkcs-41" value="逐行采集，有序写入channel" style="text;html=1;align=center;verticalAlign=middle;resizable=0;points=[];autosize=1;strokeColor=none;fillColor=none;" vertex="1" parent="1">
          <mxGeometry x="-40" y="430" width="170" height="30" as="geometry" />
        </mxCell>
        <mxCell id="4VtLp9OZr_BloXx7tkcs-42" value="多个sink 竞争锁，随机take数据。这里目前没有取模的逻辑&lt;br&gt;&lt;br&gt;之后这里需要改成 sink组，然后使用round robin 做load-balance" style="text;html=1;align=left;verticalAlign=middle;resizable=0;points=[];autosize=1;strokeColor=none;fillColor=none;" vertex="1" parent="1">
          <mxGeometry x="90" y="230" width="360" height="60" as="geometry" />
        </mxCell>
        <mxCell id="4VtLp9OZr_BloXx7tkcs-43" value="多个sink 竞争锁，随机take数据。这里没有取模的逻辑" style="text;html=1;align=center;verticalAlign=middle;resizable=0;points=[];autosize=1;strokeColor=none;fillColor=none;" vertex="1" parent="1">
          <mxGeometry x="700" y="220" width="310" height="30" as="geometry" />
        </mxCell>
        <mxCell id="4VtLp9OZr_BloXx7tkcs-46" value="写kafka时，根据key取模 写入具体的分区" style="text;html=1;align=center;verticalAlign=middle;resizable=0;points=[];autosize=1;strokeColor=none;fillColor=none;" vertex="1" parent="1">
          <mxGeometry x="940" y="400" width="240" height="30" as="geometry" />
        </mxCell>
        <mxCell id="4VtLp9OZr_BloXx7tkcs-47" value="part 2" style="rounded=0;whiteSpace=wrap;html=1;" vertex="1" parent="1">
          <mxGeometry x="1145" y="480" width="90" height="40" as="geometry" />
        </mxCell>
        <mxCell id="4VtLp9OZr_BloXx7tkcs-48" value="如果要保证有序，说白了，就是整个链路中，涉及到数据交换的环节，同一个key的数据，只能交给一个线程去处理，&lt;br&gt;因为一旦交个多个线程，就算多个线程 in/out 的时候强制有序，但是处理时间 / 网络情况都不一样，到了后续的流程中仍然会有乱序的可能。&lt;br&gt;所以在第一层的时候，文件A的数据只能交给sinkA take，然后数据到了二层的时候，kafka sink" style="text;html=1;align=left;verticalAlign=middle;resizable=0;points=[];autosize=1;strokeColor=none;fillColor=none;" vertex="1" parent="1">
          <mxGeometry x="5" y="590" width="760" height="60" as="geometry" />
        </mxCell>
      </root>
    </mxGraphModel>
  </diagram>
</mxfile>
